{"title":"Paranormal Activity-The Ghost Dimension 2015 HD-TS Hive-CM8","uid":12638087,"size":1122622000,"categoryP":"video","categoryS":"movies","magnet":"?xt=urn:btih:04e08213ccd0f48cecd3c6d2468acb78c015139b&amp;dn=Paranormal+Activity-The+Ghost+Dimension+2015+HD-TS+Hive-CM8&amp;tr=udp%3A%2F%2Ftracker.leechers-paradise.org%3A6969&amp;tr=udp%3A%2F%2Fzer0day.ch%3A1337&amp;tr=udp%3A%2F%2Fopen.demonii.com%3A1337&amp;tr=udp%3A%2F%2Ftracker.coppersurfer.tk%3A6969&amp;tr=udp%3A%2F%2Fexodus.desync.com%3A6969","seeders":17,"leechers":4,"uploader":"xxxlavalxxx","files":4,"time":1445956034,"description":"http://extraimago.com/image/z4m\r\n \nhttp://www.imdb.com/title/tt2473510/\r\n\r\n\r\nThe Ghost Dimension, follows a new family, The Fleeges - father Ryan (Chris J. Murray), mother Emily (Brit Shaw) and their young daughter Leila (Ivy George) - Who move into a house and discover a video camera and a box of tapes in the garage. When they look through the camera's lens, they begin to see the paranormal activity happening around them - including the re-emergence of young Kristi and Katie.\r\n\r\nDirector: Gregory Plotkin\r\nWriters: Jason Pagan (screenplay), Andrew Deutschman (screenplay)\r\nStars: Chris J. Murray, Brit Shaw, Ivy George \r\nGenres: Horror\r\nCountry: USA\r\nLanguage: English | German\r\n\r\n\r\nParanormal.Activity-The.Ghost.Dimension.2015.HD-TS.XVID.AC3.Hive-CM8\r\n\r\nThx Hive\r\n\r\nCM8 Doing It Right The First Time \r\n\r\nSources:\r\nVideo: Latino HDCam unmarked\r\nAudio: Sweet Line Big Thx to S4NDM4N\r\n\r\nEncode:\r\nLatino Cam was already bright on daylight scenes, dark scenes were just ok\r\nraised brightness and contrast so that you can see more in the dark, and added slightly more sharpness.\r\nlooks better now.\r\n\r\nAudio as usually nice line from S4NDM4N, lipsynced to my video, video is complete btw.\r\n\r\ngot nice and will do me till retail\r\nenjoy\r\n\r\nVideo: 720x384 @bitrate 1500 2pass\r\nAudio: English AC3 2.0 Stereo Line\r\nSample: yes included\r\n\r\n \nhttp://www.imdb.com/title/tt2473510/\r\n\r\n\r\n\r\nGeneral\r\nComplete name                  : Paranormal.Activity-The.Ghost.Dimension.2015.HD-TS.XVID.AC3.Hive-CM8.avi\r\nFormat                         : AVI\r\nFormat/Info                    : Audio Video Interleave\r\nFile size                      : 1.02 GiB\r\nDuration                       : 1h 22mn\r\nOverall bit rate               : 1 772 Kbps\r\nWriting application            : Nandub v1.0rc2\r\nWriting library                : Nandub build 1853/release\r\n\r\nVideo\r\nID                             : 0\r\nFormat                         : MPEG-4 Visual\r\nFormat profile                 : Advanced   \r\nFormat settings, BVOP          : 2\r\nFormat settings, QPel          : Yes\r\nFormat settings, GMC           : No warppoints\r\nFormat settings, Matrix        : Default (H.263)\r\nMuxing mode                    : Packed bitstream\r\nCodec ID                       : XVID\r\nCodec ID/Hint                  : XviD\r\nDuration                       : 1h 22mn\r\nBit rate                       : 1 504 Kbps\r\nWidth                          : 720 pixels\r\nHeight                         : 384 pixels\r\nDisplay aspect ratio           : 1.85:1\r\nFrame rate                     : 29.970 fps\r\nColor space                    : YUV\r\nChroma subsampling             : 4:2:0\r\nBit depth                      : 8 bits\r\nScan type                      : Progressive\r\nCompression mode               : Lossy\r\nBits/(Pixel*Frame)             : 0.182\r\nStream size                    : 889 MiB (85%)\r\nWriting library                : XviD 1.2.1 (UTC 2008-12-04)\r\n\r\nAudio\r\nID                             : 1\r\nFormat                         : AC-3\r\nFormat/Info                    : Audio Coding 3\r\nMode extension                 : CM (complete main)\r\nFormat settings, Endianness    : Big\r\nCodec ID                       : 2000\r\nDuration                       : 1h 22mn\r\nBit rate mode                  : Constant\r\nBit rate                       : 256 Kbps\r\nChannel(s)                     : 2 channels\r\nChannel positions              : Front: L R\r\nSampling rate                  : 48.0 KHz\r\nBit depth                      : 16 bits\r\nCompression mode               : Lossy\r\nStream size                    : 151 MiB (14%)\r\nAlignment                      : Split accross interleaves\r\nInterleave, duration           : 33 ms (1.00 video frame)\r\nInterleave, preload duration   : 500 ms\r\n\r\n\r\nGreetz\r\n\r\nSugarB,iNCOMiNG,Izzy,MenaceIISociety,jiinx,SiMPLE,CherryBomb\r\nranbailey,ViSiON,UnKnOwN,YanKeeS,COPYxRIGHT,THC,VAiN,ACAB,DRs\r\nLKRG,Kingstoner,SiMPLE,TiTAN,cadance,PLAYNOW\r\nUnevano,BigVik,Rapeseed,SAFC,goldadvance,KaN1vE,Pinnz,Wayne,HiGH\r\nSeeN,jtr,Limey,ICONiK,TED,rkofan,mrtoke09\r\nMr Hive\r\n\r\n\r\nLOOKING FOR ANYTHING YOU WANT TO LOOK AND SOUND BETTER\r\n\r\nCOME FIND US WE DONT BITE \r\n  \r\n\r\n \nhttp://extraimago.com/image/z4i \nhttp://extraimago.com/image/z4l \nhttp://extraimago.com/image/z4I \nhttp://extraimago.com/image/z4d \nhttp://extraimago.com/image/z4h \nhttp://extraimago.com/image/z4b \nhttp://extraimago.com/image/z43","torrent":{"xt":"urn:btih:04e08213ccd0f48cecd3c6d2468acb78c015139b","amp;dn":"Paranormal+Activity-The+Ghost+Dimension+2015+HD-TS+Hive-CM8","amp;tr":["udp%3A%2F%2Ftracker.leechers-paradise.org%3A6969","udp%3A%2F%2Fzer0day.ch%3A1337","udp%3A%2F%2Fopen.demonii.com%3A1337","udp%3A%2F%2Ftracker.coppersurfer.tk%3A6969","udp%3A%2F%2Fexodus.desync.com%3A6969"],"infoHash":"04e08213ccd0f48cecd3c6d2468acb78c015139b","infoHashBuffer":{"type":"Buffer","data":[4,224,130,19,204,208,244,140,236,211,198,210,70,138,203,120,192,21,19,155]},"announce":[],"urlList":[]}}